<svg width="139" height="107" viewBox="0 0 139 107" fill="none" xmlns="http://www.w3.org/2000/svg">
<g id="cloud-backup-svgrepo-com 1">
<path id="Vector" d="M111.784 90.0463C111.784 89.6119 111.852 89.1911 111.987 88.7975H85.6533V42.6587C85.6533 41.9121 85.0425 41.3013 84.2959 41.3013C83.5493 41.3013 82.9385 41.9121 82.9385 42.6587V91.5123H112.069C111.892 91.0644 111.784 90.5621 111.784 90.0463Z" fill="#1DD58B"/>
<path id="Vector_2" d="M115.679 86.1641C113.969 86.1641 112.516 87.2636 112.001 88.7975C111.865 89.1911 111.797 89.6119 111.797 90.0463C111.797 90.5621 111.892 91.0508 112.082 91.5123C112.666 92.9376 114.05 93.9421 115.693 93.9421C117.838 93.9421 119.589 92.2046 119.589 90.0463C119.575 87.9016 117.824 86.1641 115.679 86.1641ZM95.0193 20.9807C95.3044 20.2884 94.9786 19.4875 94.2863 19.2024C83.6984 14.818 75.9204 17.0849 71.2644 19.759C66.2148 22.6503 63.7036 26.5732 63.6086 26.7497C63.2149 27.3877 63.405 28.2157 64.0294 28.6229C64.2601 28.7587 64.5045 28.8266 64.7488 28.8266C65.1967 28.8266 65.6447 28.6094 65.9026 28.2021C65.9298 28.1614 68.2238 24.6186 72.7169 22.0666C78.7031 18.6866 85.5988 18.5645 93.2411 21.7272C93.9334 21.9987 94.7342 21.673 95.0193 20.9807Z" fill="#1DD58B"/>
<path id="Vector_3" d="M115.68 97.2813C113.996 97.2813 112.571 98.3401 112.028 99.8333H72.5544V83.3678H82.9387V77.9381H72.5544V59.0156C72.5544 58.269 71.9436 57.6582 71.197 57.6582C70.4504 57.6582 69.8396 58.269 69.8396 59.0156V77.9381H60.7584V59.0156C60.7584 58.269 60.1476 57.6582 59.401 57.6582C58.6544 57.6582 58.0436 58.269 58.0436 59.0156V77.9381H43.3291C31.3023 77.9381 21.5153 68.1511 21.5153 56.1243C21.5153 44.0976 31.3023 34.3105 43.3291 34.3105C50.2384 34.3105 56.8083 37.6362 60.9077 43.2152C61.79 44.4233 63.5004 44.6812 64.7085 43.7989C65.9166 42.9166 66.1745 41.2062 65.2922 39.9981C62.8081 36.6317 59.5367 33.8354 55.831 31.9215C54.7586 31.3649 53.6455 30.8763 52.5053 30.469C57.8399 18.1165 70.0567 9.99912 83.6988 9.99912C102.431 9.99912 117.675 25.243 117.675 43.9754C117.675 62.0427 103.504 76.8521 85.6807 77.8838V83.327C95.4677 82.852 104.59 78.8068 111.567 71.8297C119.005 64.391 123.105 54.4954 123.105 43.9754C123.105 33.4554 119.005 23.5598 111.567 16.1211C104.128 8.68242 94.2324 4.58301 83.7124 4.58301C67.5862 4.58301 53.184 14.37 47.1842 29.1795C45.9218 29.003 44.6322 28.908 43.3562 28.908C28.3296 28.908 16.1128 41.1248 16.1128 56.1515C16.1128 71.1781 28.3296 83.3949 43.3562 83.3949H58.0707V93.4263H34.0579C33.4742 90.7657 31.0987 88.7567 28.2617 88.7567C24.9903 88.7567 22.3298 91.4173 22.3298 94.6887C22.3298 97.9601 24.9903 100.621 28.2617 100.621C31.0309 100.621 33.3656 98.7066 34.0172 96.1411H60.7584V83.3949H69.8396V102.575H112.042C112.598 104.041 114.024 105.087 115.68 105.087C117.824 105.087 119.575 103.349 119.575 101.191C119.575 99.0188 117.824 97.2813 115.68 97.2813ZM31.1802 96.0189C30.6644 97.1185 29.5513 97.8786 28.2617 97.8786C26.4835 97.8786 25.0446 96.4397 25.0446 94.6615C25.0446 92.8833 26.4835 91.4444 28.2617 91.4444C29.6056 91.4444 30.7729 92.286 31.248 93.467C31.3974 93.8335 31.4788 94.2407 31.4788 94.6615C31.4788 95.1502 31.3702 95.6117 31.1802 96.0189Z" fill="#1DD58B"/>
</g>
</svg>
