<svg width="58" height="75" viewBox="0 0 58 75" fill="none" xmlns="http://www.w3.org/2000/svg">
<g id="fa:mobile" clip-path="url(#clip0_462_521)">
<path id="Vector" d="M34.8751 67.5C34.8751 66.2109 34.2998 65.1074 33.1493 64.1895C31.9987 63.2715 30.6157 62.8125 29.0001 62.8125C27.3844 62.8125 26.0014 63.2715 24.8508 64.1895C23.7003 65.1074 23.1251 66.2109 23.1251 67.5C23.1251 68.7891 23.7003 69.8926 24.8508 70.8105C26.0014 71.7285 27.3844 72.1875 29.0001 72.1875C30.6157 72.1875 31.9987 71.7285 33.1493 70.8105C34.2998 69.8926 34.8751 68.7891 34.8751 67.5ZM50.1501 58.125V16.875C50.1501 16.3672 49.9175 15.9277 49.4524 15.5566C48.9873 15.1855 48.4365 15 47.8001 15H10.2C9.56359 15 9.01281 15.1855 8.54771 15.5566C8.0826 15.9277 7.85005 16.3672 7.85005 16.875V58.125C7.85005 58.6328 8.0826 59.0723 8.54771 59.4434C9.01281 59.8145 9.56359 60 10.2 60H47.8001C48.4365 60 48.9873 59.8145 49.4524 59.4434C49.9175 59.0723 50.1501 58.6328 50.1501 58.125ZM36.0501 8.4375C36.0501 7.8125 35.6584 7.5 34.8751 7.5H23.1251C22.3417 7.5 21.9501 7.8125 21.9501 8.4375C21.9501 9.0625 22.3417 9.375 23.1251 9.375H34.8751C35.6584 9.375 36.0501 9.0625 36.0501 8.4375ZM57.2001 7.5V67.5C57.2001 69.5313 56.2698 71.2891 54.4094 72.7734C52.549 74.2578 50.3459 75 47.8001 75H10.2C7.65422 75 5.45109 74.2578 3.59067 72.7734C1.73026 71.2891 0.800049 69.5313 0.800049 67.5V7.5C0.800049 5.46875 1.73026 3.71094 3.59067 2.22656C5.45109 0.742187 7.65422 0 10.2 0H47.8001C50.3459 0 52.549 0.742187 54.4094 2.22656C56.2698 3.71094 57.2001 5.46875 57.2001 7.5Z" fill="#1DD58B"/>
</g>
<defs>
<clipPath id="clip0_462_521">
<rect width="56.4" height="75" fill="white" transform="translate(0.800049)"/>
</clipPath>
</defs>
</svg>
