<svg width="80" height="75" viewBox="0 0 80 75" fill="none" xmlns="http://www.w3.org/2000/svg">
<path id="Vector" d="M78.0952 18.5159L60.2661 1.75778C59.6732 1.2005 58.9693 0.758439 58.1946 0.456836C57.4198 0.155234 56.5895 0 55.7509 0C54.9124 0 54.082 0.155234 53.3073 0.456836C52.5326 0.758439 51.8287 1.2005 51.2358 1.75778L2.02998 48.001C1.43453 48.5561 0.962442 49.2169 0.641156 49.945C0.319871 50.6731 0.1558 51.4539 0.15848 52.2421V69.0002C0.15848 70.5914 0.831147 72.1175 2.0285 73.2427C3.22586 74.3679 4.84982 75 6.54314 75H24.3763C25.2151 75.0025 26.046 74.8483 26.8208 74.5464C27.5955 74.2445 28.2987 73.8008 28.8895 73.2413L78.0952 27.0018C78.6883 26.4447 79.1587 25.7832 79.4796 25.0552C79.8006 24.3272 79.9658 23.5469 79.9658 22.7588C79.9658 21.9708 79.8006 21.1905 79.4796 20.4625C79.1587 19.7345 78.6883 19.073 78.0952 18.5159ZM7.86397 51.0009L41.6588 19.2434L48.3188 25.5019L14.524 57.2556L7.86397 51.0009ZM6.54314 58.2419L17.9916 69.0002H6.54314V58.2419ZM25.6971 67.759L19.0371 61.5005L52.8319 29.743L59.4919 36.0015L25.6971 67.759ZM64.0051 31.7604L46.1719 15.0023L55.7489 6.00261L73.5821 22.757L64.0051 31.7604Z" fill="#1DD58B"/>
</svg>
