<svg width="60" height="91" viewBox="0 0 60 91" fill="none" xmlns="http://www.w3.org/2000/svg">
<g clip-path="url(#clip0_376_645)">
<path d="M30 45.5001C30 37.2092 36.6473 30.4878 44.8473 30.4878C53.0471 30.4878 59.6946 37.2092 59.6946 45.5001C59.6946 53.7912 53.0471 60.5123 44.8473 60.5123C36.6473 60.5123 30 53.7912 30 45.5001Z" fill="#1ABCFE"/>
<path d="M0.30542 75.5245C0.30542 67.2336 6.95277 60.5122 15.1527 60.5122H30V75.5245C30 83.8156 23.3527 90.5367 15.1527 90.5367C6.95277 90.5367 0.30542 83.8156 0.30542 75.5245Z" fill="#0ACF83"/>
<path d="M30 0.463379V30.4878H44.8473C53.0473 30.4878 59.6946 23.7667 59.6946 15.4756C59.6946 7.1846 53.0473 0.463379 44.8473 0.463379H30Z" fill="#FF7262"/>
<path d="M0.30542 15.4756C0.30542 23.7667 6.95277 30.4878 15.1527 30.4878H30V0.463379H15.1527C6.95277 0.463379 0.30542 7.18459 0.30542 15.4756Z" fill="#F24E1E"/>
<path d="M0.30542 45.5001C0.30542 53.7912 6.95277 60.5123 15.1527 60.5123H30V30.4878H15.1527C6.95277 30.4878 0.30542 37.2092 0.30542 45.5001Z" fill="#A259FF"/>
</g>
<defs>
<clipPath id="clip0_376_645">
<rect width="60" height="91" fill="white"/>
</clipPath>
</defs>
</svg>
