<svg width="24" height="24" viewBox="0 0 24 24" fill="none" xmlns="http://www.w3.org/2000/svg">
<path d="M6.75 5.25C7.16421 5.25 7.5 4.91421 7.5 4.5C7.5 4.08579 7.16421 3.75 6.75 3.75C6.33579 3.75 6 4.08579 6 4.5C6 4.91421 6.33579 5.25 6.75 5.25Z" fill="#FCF7F5"/>
<path d="M19.5 1.5H4.5C4.10218 1.5 3.72064 1.65804 3.43934 1.93934C3.15804 2.22064 3 2.60218 3 3V6C3 6.39782 3.15804 6.77936 3.43934 7.06066C3.72064 7.34196 4.10218 7.5 4.5 7.5H11.25V10.5H12.75V7.5H19.5C19.8978 7.5 20.2794 7.34196 20.5607 7.06066C20.842 6.77936 21 6.39782 21 6V3C21 2.60218 20.842 2.22064 20.5607 1.93934C20.2794 1.65804 19.8978 1.5 19.5 1.5ZM19.5 6H4.5V3H19.5V6ZM12.75 21V19.5H11.25V21H3V22.5H21V21H12.75Z" fill="#FCF7F5"/>
<path d="M6.75 15.75C7.16421 15.75 7.5 15.4142 7.5 15C7.5 14.5858 7.16421 14.25 6.75 14.25C6.33579 14.25 6 14.5858 6 15C6 15.4142 6.33579 15.75 6.75 15.75Z" fill="#FCF7F5"/>
<path d="M4.5 18H19.5C19.8978 18 20.2794 17.842 20.5607 17.5607C20.842 17.2794 21 16.8978 21 16.5V13.5C21 13.1022 20.842 12.7206 20.5607 12.4393C20.2794 12.158 19.8978 12 19.5 12H4.5C4.10218 12 3.72064 12.158 3.43934 12.4393C3.15804 12.7206 3 13.1022 3 13.5V16.5C3 16.8978 3.15804 17.2794 3.43934 17.5607C3.72064 17.842 4.10218 18 4.5 18ZM4.5 13.5H19.5V16.5H4.5V13.5Z" fill="#FCF7F5"/>
</svg>
