<svg width="74" height="82" viewBox="0 0 74 82" fill="none" xmlns="http://www.w3.org/2000/svg">
<g clip-path="url(#clip0_376_629)">
<path d="M73.8714 0.49585L67.1533 73.6107L36.9549 81.7438L6.8398 73.6219L0.128635 0.49585H73.8714Z" fill="#E44D26"/>
<path d="M37 75.527L61.4018 68.9549L67.1426 6.47485H37V75.527Z" fill="#F16529"/>
<path d="M23.9402 24.4125H37V15.4438H13.851L14.0718 17.8499L16.341 42.5651H37V33.5965H24.7839L23.9402 24.4125ZM26.0208 47.0495H16.7535L18.0467 61.1316L36.9575 66.2313L37 66.2201V56.889L36.9595 56.8993L26.6782 54.2023L26.0208 47.0495Z" fill="#EBEBEB"/>
<path d="M36.9682 42.5651H48.3362L47.2643 54.1967L36.9679 56.8965V66.2271L55.8937 61.1316L56.0324 59.6163L58.2022 36.0048L58.4273 33.5965H36.9682V42.5651ZM36.9682 24.3906V24.4125H59.2673L59.4523 22.3967L59.8732 17.8499L60.0938 15.4438H36.9682V24.3906Z" fill="#FCF7F5"/>
</g>
<defs>
<clipPath id="clip0_376_629">
<rect width="74" height="82" fill="white"/>
</clipPath>
</defs>
</svg>
