<svg width="42" height="43" viewBox="0 0 42 43" fill="none" xmlns="http://www.w3.org/2000/svg">
<rect y="0.5" width="42" height="42" rx="21" fill="#333333"/>
<path d="M20.7509 18.625C20.0547 18.625 19.387 18.9016 18.8947 19.3938C18.4024 19.8861 18.1259 20.5538 18.1259 21.25C18.1259 21.9462 18.4024 22.6139 18.8947 23.1062C19.387 23.5984 20.0547 23.875 20.7509 23.875C21.4471 23.875 22.1147 23.5984 22.607 23.1062C23.0993 22.6139 23.3759 21.9462 23.3759 21.25C23.3759 20.5538 23.0993 19.8861 22.607 19.3938C22.1147 18.9016 21.4471 18.625 20.7509 18.625ZM20.7509 16.875C21.9112 16.875 23.024 17.3359 23.8445 18.1564C24.6649 18.9769 25.1259 20.0897 25.1259 21.25C25.1259 22.4103 24.6649 23.5231 23.8445 24.3436C23.024 25.1641 21.9112 25.625 20.7509 25.625C19.5906 25.625 18.4778 25.1641 17.6573 24.3436C16.8368 23.5231 16.3759 22.4103 16.3759 21.25C16.3759 20.0897 16.8368 18.9769 17.6573 18.1564C18.4778 17.3359 19.5906 16.875 20.7509 16.875ZM26.4384 16.6562C26.4384 16.9463 26.3231 17.2245 26.118 17.4296C25.9129 17.6348 25.6347 17.75 25.3446 17.75C25.0545 17.75 24.7763 17.6348 24.5712 17.4296C24.3661 17.2245 24.2509 16.9463 24.2509 16.6562C24.2509 16.3662 24.3661 16.088 24.5712 15.8829C24.7763 15.6777 25.0545 15.5625 25.3446 15.5625C25.6347 15.5625 25.9129 15.6777 26.118 15.8829C26.3231 16.088 26.4384 16.3662 26.4384 16.6562ZM20.7509 14.25C18.5861 14.25 18.2326 14.2561 17.2255 14.3008C16.5395 14.3331 16.0792 14.425 15.6522 14.5912C15.2949 14.7224 14.9719 14.9327 14.7072 15.2064C14.4334 15.471 14.2228 15.794 14.0912 16.1514C13.925 16.5801 13.8331 17.0395 13.8016 17.7246C13.7561 18.6906 13.75 19.0284 13.75 21.25C13.75 23.4156 13.7561 23.7682 13.8008 24.7754C13.8331 25.4605 13.925 25.9216 14.0904 26.3477C14.2391 26.7284 14.4141 27.0022 14.7046 27.2928C14.9995 27.5868 15.2734 27.7626 15.6496 27.9079C16.0819 28.075 16.5421 28.1677 17.2246 28.1992C18.1906 28.2447 18.5284 28.25 20.75 28.25C22.9156 28.25 23.2682 28.2439 24.2754 28.1992C24.9596 28.1669 25.4199 28.075 25.8477 27.9096C26.2048 27.7778 26.5277 27.5676 26.7928 27.2945C27.0876 27.0005 27.2635 26.7266 27.4088 26.3495C27.575 25.919 27.6677 25.4587 27.6992 24.7745C27.7447 23.8094 27.75 23.4707 27.75 21.25C27.75 19.0852 27.7439 18.7318 27.6992 17.7246C27.6669 17.0404 27.5741 16.5784 27.4088 16.1514C27.2769 15.7944 27.0667 15.4715 26.7936 15.2064C26.5291 14.9324 26.2061 14.7218 25.8486 14.5904C25.4199 14.4241 24.9596 14.3323 24.2754 14.3008C23.3102 14.2553 22.9725 14.25 20.75 14.25M20.75 12.5C23.1274 12.5 23.424 12.5087 24.3576 12.5525C25.2886 12.5962 25.9239 12.7424 26.4812 12.9594C27.0587 13.1816 27.5453 13.4826 28.0317 13.9683C28.4767 14.4057 28.821 14.9348 29.0406 15.5187C29.2568 16.0761 29.4038 16.7114 29.4475 17.6432C29.4886 18.576 29.5 18.8726 29.5 21.25C29.5 23.6274 29.4913 23.924 29.4475 24.8567C29.4038 25.7886 29.2568 26.423 29.0406 26.9812C28.8216 27.5655 28.4772 28.0948 28.0317 28.5317C27.5942 28.9765 27.0651 29.3208 26.4812 29.5406C25.9239 29.7568 25.2886 29.9038 24.3576 29.9475C23.424 29.9886 23.1274 30 20.75 30C18.3726 30 18.076 29.9913 17.1424 29.9475C16.2114 29.9038 15.577 29.7568 15.0187 29.5406C14.4345 29.3214 13.9053 28.9771 13.4683 28.5317C13.0233 28.0944 12.679 27.5653 12.4594 26.9812C12.2424 26.4239 12.0962 25.7886 12.0525 24.8567C12.0105 23.924 12 23.6274 12 21.25C12 18.8726 12.0087 18.576 12.0525 17.6432C12.0962 16.7114 12.2424 16.077 12.4594 15.5187C12.6783 14.9344 13.0227 14.4052 13.4683 13.9683C13.9055 13.5231 14.4346 13.1788 15.0187 12.9594C15.5761 12.7424 16.2105 12.5962 17.1424 12.5525C18.0769 12.5114 18.3735 12.5 20.7509 12.5" fill="#FCF7F5"/>
</svg>
