<svg width="41" height="43" viewBox="0 0 41 43" fill="none" xmlns="http://www.w3.org/2000/svg">
<rect y="0.5" width="40.5507" height="41.52" rx="20.2754" fill="#333333"/>
<path d="M14.8931 14.4475C14.8929 14.9638 14.6875 15.4588 14.3223 15.8237C13.9571 16.1885 13.4618 16.3934 12.9456 16.3931C12.4293 16.3929 11.9343 16.1875 11.5694 15.8223C11.2046 15.4571 10.9997 14.9618 11 14.4456C11.0003 13.9293 11.2056 13.4343 11.5708 13.0694C11.9361 12.7046 12.4313 12.4997 12.9475 12.5C13.4638 12.5003 13.9588 12.7056 14.3237 13.0708C14.6885 13.4361 14.8934 13.9313 14.8931 14.4475ZM14.9515 17.8345H11.0584L11.0584 30.02H14.9515L14.9515 17.8345ZM21.1026 17.8345H17.229L17.229 30.02H21.0637L21.0637 23.6256C21.0637 20.0634 25.7062 19.7324 25.7062 23.6256L25.7062 30.02H29.5507L29.5507 22.3019C29.5507 16.2968 22.6793 16.5206 21.0637 19.4697L21.1026 17.8345Z" fill="#FCF7F5"/>
</svg>
