<svg width="458" height="248" viewBox="0 0 458 248" fill="none" xmlns="http://www.w3.org/2000/svg">
<path d="M65.319 123.501C67.5378 123.866 69.569 124.772 71.4023 126.231C73.2461 127.689 74.7044 129.501 75.7773 131.668C76.8607 133.824 77.4023 136.126 77.4023 138.585C77.4023 141.684 76.6107 144.475 75.0273 146.96C73.4544 149.449 71.1628 151.408 68.1523 152.835C65.1523 154.267 61.6003 154.981 57.5065 154.981H34.7148V93.8763H56.6315C60.7826 93.8763 64.319 94.5638 67.2357 95.9388C70.1628 97.3138 72.3607 99.168 73.819 101.501C75.2773 103.835 76.0065 106.47 76.0065 109.397C76.0065 113.022 75.0273 116.022 73.069 118.397C71.1107 120.762 68.5273 122.46 65.319 123.501ZM42.694 120.272H56.1107C59.8451 120.272 62.7357 119.397 64.7773 117.647C66.8294 115.887 67.8607 113.454 67.8607 110.356C67.8607 107.262 66.8294 104.835 64.7773 103.085C62.7357 101.335 59.7826 100.46 55.9232 100.46H42.694V120.272ZM56.7982 148.397C60.7826 148.397 63.8815 147.47 66.0898 145.606C68.3086 143.731 69.4232 141.126 69.4232 137.793C69.4232 134.408 68.2565 131.731 65.9232 129.772C63.5898 127.814 60.4648 126.835 56.5482 126.835H42.694V148.397H56.7982Z" fill="#FCF7F5"/>
<path d="M129.821 106.939L100.904 177.606H92.6545L102.113 154.46L82.7378 106.939H91.6128L106.675 145.856L121.592 106.939H129.821Z" fill="#FCF7F5"/>
<path d="M147.524 113.522V141.835C147.524 144.168 148.013 145.824 149.003 146.793C150.003 147.751 151.732 148.231 154.19 148.231H160.065V154.981H152.878C148.43 154.981 145.097 153.96 142.878 151.918C140.654 149.866 139.545 146.501 139.545 141.835V113.522H133.315V106.939H139.545V94.8347H147.524V106.939H160.065V113.522H147.524Z" fill="#FCF7F5"/>
<path d="M213.533 129.126C213.533 130.642 213.439 132.246 213.262 133.939H174.867C175.158 138.678 176.773 142.376 179.721 145.043C182.679 147.699 186.262 149.022 190.471 149.022C193.929 149.022 196.809 148.22 199.117 146.606C201.419 144.996 203.038 142.85 203.971 140.168H212.575C211.283 144.783 208.705 148.538 204.846 151.439C200.997 154.33 196.205 155.772 190.471 155.772C185.913 155.772 181.835 154.751 178.242 152.71C174.658 150.658 171.835 147.746 169.783 143.981C167.742 140.205 166.721 135.835 166.721 130.876C166.721 125.908 167.71 121.553 169.7 117.814C171.684 114.064 174.476 111.184 178.075 109.168C181.669 107.158 185.804 106.147 190.471 106.147C195.038 106.147 199.075 107.142 202.575 109.126C206.075 111.116 208.773 113.85 210.679 117.335C212.58 120.809 213.533 124.741 213.533 129.126ZM205.283 127.46C205.283 124.418 204.606 121.803 203.262 119.606C201.929 117.413 200.101 115.746 197.783 114.606C195.476 113.47 192.919 112.897 190.117 112.897C186.085 112.897 182.658 114.184 179.825 116.751C176.992 119.324 175.367 122.892 174.95 127.46H205.283Z" fill="#FCF7F5"/>
<path d="M278.052 123.501C280.271 123.866 282.302 124.772 284.135 126.231C285.979 127.689 287.437 129.501 288.51 131.668C289.594 133.824 290.135 136.126 290.135 138.585C290.135 141.684 289.344 144.475 287.76 146.96C286.187 149.449 283.896 151.408 280.885 152.835C277.885 154.267 274.333 154.981 270.239 154.981H247.448V93.8763H269.364C273.515 93.8763 277.052 94.5638 279.969 95.9388C282.896 97.3138 285.094 99.168 286.552 101.501C288.01 103.835 288.739 106.47 288.739 109.397C288.739 113.022 287.76 116.022 285.802 118.397C283.844 120.762 281.26 122.46 278.052 123.501ZM255.427 120.272H268.844C272.578 120.272 275.469 119.397 277.51 117.647C279.562 115.887 280.594 113.454 280.594 110.356C280.594 107.262 279.562 104.835 277.51 103.085C275.469 101.335 272.515 100.46 268.656 100.46H255.427V120.272ZM269.531 148.397C273.515 148.397 276.614 147.47 278.823 145.606C281.042 143.731 282.156 141.126 282.156 137.793C282.156 134.408 280.989 131.731 278.656 129.772C276.323 127.814 273.198 126.835 269.281 126.835H255.427V148.397H269.531Z" fill="#FCF7F5"/>
<path d="M298.2 130.793C298.2 125.876 299.189 121.564 301.179 117.856C303.163 114.147 305.892 111.272 309.366 109.231C312.851 107.178 316.726 106.147 320.991 106.147C325.2 106.147 328.851 107.059 331.95 108.876C335.043 110.684 337.351 112.96 338.866 115.71V106.939H346.95V154.981H338.866V146.043C337.293 148.85 334.95 151.178 331.825 153.022C328.7 154.856 325.059 155.772 320.908 155.772C316.642 155.772 312.783 154.725 309.325 152.626C305.877 150.517 303.163 147.564 301.179 143.772C299.189 139.97 298.2 135.642 298.2 130.793ZM338.866 130.876C338.866 127.251 338.137 124.1 336.679 121.418C335.221 118.725 333.247 116.663 330.762 115.231C328.273 113.803 325.543 113.085 322.575 113.085C319.585 113.085 316.866 113.788 314.408 115.189C311.96 116.595 310.002 118.642 308.533 121.335C307.075 124.017 306.346 127.168 306.346 130.793C306.346 134.475 307.075 137.678 308.533 140.397C310.002 143.106 311.96 145.178 314.408 146.606C316.866 148.038 319.585 148.751 322.575 148.751C325.543 148.751 328.273 148.038 330.762 146.606C333.247 145.178 335.221 143.106 336.679 140.397C338.137 137.678 338.866 134.501 338.866 130.876Z" fill="#FCF7F5"/>
<path d="M357.453 130.876C357.453 125.908 358.443 121.564 360.432 117.856C362.417 114.147 365.172 111.272 368.703 109.231C372.245 107.178 376.292 106.147 380.849 106.147C386.75 106.147 391.62 107.585 395.453 110.46C399.286 113.324 401.813 117.293 403.036 122.376H394.453C393.63 119.449 392.036 117.137 389.661 115.439C387.297 113.746 384.359 112.897 380.849 112.897C376.292 112.897 372.609 114.46 369.807 117.585C367 120.71 365.599 125.142 365.599 130.876C365.599 136.658 367 141.126 369.807 144.293C372.609 147.449 376.292 149.022 380.849 149.022C384.359 149.022 387.286 148.205 389.62 146.564C391.964 144.928 393.578 142.585 394.453 139.543H403.036C401.755 144.46 399.188 148.397 395.328 151.356C391.464 154.303 386.641 155.772 380.849 155.772C376.292 155.772 372.245 154.751 368.703 152.71C365.172 150.658 362.417 147.762 360.432 144.022C358.443 140.288 357.453 135.908 357.453 130.876Z" fill="#FCF7F5"/>
<path d="M440.471 154.98L421.616 133.772V154.98H413.637V90.1055H421.616V128.251L440.116 106.939H451.241L428.637 130.876L451.325 154.98H440.471Z" fill="#FCF7F5"/>
<path d="M228.141 80.0053C226.808 79.797 225.427 80.2709 224.542 81.3126C219.396 87.3543 211.87 90.823 203.886 90.823C188.969 90.823 176.834 78.6876 176.834 63.7709C176.834 59.8542 177.688 55.9792 179.308 52.5574C179.87 51.3647 179.787 49.9636 179.084 48.849C178.381 47.7345 177.162 47.047 175.839 47.0365C161.021 46.9167 148.969 34.7761 148.969 19.9845C148.969 18.3438 149.141 16.5938 149.474 14.7865C149.854 12.724 148.521 10.7345 146.469 10.297C138.849 8.68758 130.854 7.86987 122.709 7.86987C58.766 7.86987 6.74512 59.8907 6.74512 123.833C6.74512 187.818 58.766 239.87 122.709 239.87C186.693 239.87 238.745 187.818 238.745 123.833C238.745 109.62 236.172 95.6876 231.099 82.4324C230.61 81.1615 229.485 80.2345 228.141 80.0053ZM122.709 232.135C63.0316 232.135 14.4795 183.552 14.4795 123.833C14.4795 64.1563 63.0316 15.6042 122.709 15.6042C129.073 15.6042 135.328 16.1355 141.354 17.1876C141.276 18.1355 141.235 19.073 141.235 19.9845C141.235 37.1876 153.907 51.5938 170.417 54.3126C169.547 57.3595 169.099 60.5574 169.099 63.7709C169.099 82.9532 184.703 98.5574 203.886 98.5574C211.974 98.5574 219.698 95.7865 225.849 90.8022C229.276 101.469 231.011 112.557 231.011 123.833C231.011 183.552 182.427 232.135 122.709 232.135Z" fill="#1DD58B"/>
</svg>
