<svg width="97.5" height="87.93" viewBox="0 0 98 88" fill="none" xmlns="http://www.w3.org/2000/svg">
<g clip-path="url(#clip0_376_683)">
<path d="M97.6306 43.8113C97.6306 37.362 89.5593 31.2501 77.1846 27.4599C80.0403 14.8391 78.7711 4.79799 73.1787 1.58326C71.8897 0.829184 70.3825 0.471992 68.7365 0.471992V4.89721C69.6487 4.89721 70.3825 5.07581 70.9973 5.41315C73.6943 6.96099 74.8644 12.8547 73.9521 20.4351C73.734 22.3004 73.377 24.265 72.9407 26.2692C69.0538 25.3167 64.8099 24.5825 60.3479 24.1062C57.6707 20.4351 54.8943 17.1013 52.0981 14.1842C58.5631 8.17147 64.6314 4.87737 68.7563 4.87737V0.452148C63.3028 0.452148 56.1635 4.34158 48.9449 11.0885C41.7264 4.38127 34.5871 0.531525 29.1335 0.531525V4.95674C33.2386 4.95674 39.3268 8.23101 45.7918 14.2041C43.0154 17.1211 40.239 20.4351 37.6015 24.1062C33.1196 24.5825 28.8757 25.3167 24.9888 26.2891C24.5327 24.3047 24.1956 22.3798 23.9576 20.5343C23.0255 12.9539 24.1757 7.06021 26.853 5.49253C27.4479 5.13534 28.2213 4.97659 29.1335 4.97659V0.551369C27.4677 0.551369 25.9605 0.908561 24.6517 1.66263C19.0791 4.87737 17.8297 14.8986 20.7053 27.4797C8.37024 31.2898 0.338593 37.3819 0.338593 43.8113C0.338593 50.2606 8.4099 56.3726 20.7846 60.1628C17.9289 72.7836 19.1981 82.8247 24.7905 86.0394C26.0795 86.7935 27.5867 87.1507 29.2525 87.1507C34.7061 87.1507 41.8454 83.2613 49.0639 76.5143C56.2825 83.2216 63.4217 87.0713 68.8753 87.0713C70.5412 87.0713 72.0483 86.7141 73.3572 85.96C78.9298 82.7453 80.1791 72.7241 77.3036 60.143C89.599 56.3528 97.6306 50.2408 97.6306 43.8113ZM71.8103 30.5754C71.0766 33.1353 70.1644 35.7745 69.1331 38.4138C68.3201 36.8262 67.4673 35.2387 66.5352 33.6512C65.623 32.0637 64.6513 30.5158 63.6796 29.0077C66.4956 29.4244 69.2125 29.9404 71.8103 30.5754ZM62.7276 51.7093C61.1808 54.3882 59.5943 56.9282 57.9483 59.2897C54.9935 59.5476 51.999 59.6866 48.9846 59.6866C45.9901 59.6866 42.9956 59.5476 40.0606 59.3095C38.4146 56.9481 36.8082 54.4279 35.2614 51.7688C33.7542 49.1692 32.3859 46.53 31.1365 43.8709C32.366 41.2118 33.7542 38.5527 35.2416 35.9531C36.7884 33.2742 38.3749 30.7341 40.0209 28.3727C42.9757 28.1147 45.9703 27.9758 48.9846 27.9758C51.9791 27.9758 54.9736 28.1147 57.9087 28.3528C59.5547 30.7143 61.161 33.2345 62.7078 35.8936C64.215 38.4931 65.5833 41.1324 66.8327 43.7915C65.5833 46.4506 64.215 49.1097 62.7276 51.7093ZM69.1331 49.1295C70.204 51.7886 71.1163 54.4477 71.8699 57.0275C69.272 57.6625 66.5352 58.1983 63.6994 58.615C64.6711 57.087 65.6428 55.5193 66.5551 53.9119C67.4673 52.3244 68.3201 50.7171 69.1331 49.1295ZM49.0243 70.3031C47.18 68.3981 45.3357 66.2748 43.5112 63.953C45.296 64.0324 47.1205 64.0919 48.9648 64.0919C50.8289 64.0919 52.6732 64.0522 54.4779 63.953C52.693 66.2748 50.8487 68.3981 49.0243 70.3031ZM34.2698 58.615C31.4538 58.1983 28.7369 57.6823 26.139 57.0473C26.8728 54.4874 27.785 51.8482 28.8162 49.2089C29.6293 50.7964 30.4821 52.384 31.4141 53.9715C32.3462 55.559 33.2981 57.1068 34.2698 58.615ZM48.9251 17.3196C50.7694 19.2246 52.6137 21.3479 54.4382 23.6697C52.6534 23.5903 50.8289 23.5307 48.9846 23.5307C47.1205 23.5307 45.2762 23.5704 43.4715 23.6697C45.2563 21.3479 47.1006 19.2246 48.9251 17.3196ZM34.25 29.0077C33.2783 30.5357 32.3065 32.1034 31.3943 33.7107C30.4821 35.2983 29.6293 36.8858 28.8162 38.4733C27.7454 35.8142 26.8331 33.1551 26.0795 30.5754C28.6774 29.9602 31.4141 29.4244 34.25 29.0077ZM16.3027 53.8524C9.28248 50.856 4.74113 46.9268 4.74113 43.8113C4.74113 40.6958 9.28248 36.7469 16.3027 33.7703C18.0082 33.036 19.8724 32.3812 21.796 31.766C22.9264 35.6554 24.4137 39.7036 26.258 43.851C24.4335 47.9786 22.966 52.0069 21.8555 55.8765C19.8922 55.2613 18.0281 54.5866 16.3027 53.8524ZM26.9719 82.2095C24.2749 80.6617 23.1048 74.768 24.0171 67.1876C24.2352 65.3223 24.5922 63.3577 25.0285 61.3535C28.9154 62.306 33.1593 63.0402 37.6213 63.5164C40.2985 67.1876 43.0749 70.5214 45.8711 73.4385C39.4061 79.4512 33.3378 82.7453 29.2129 82.7453C28.3205 82.7255 27.5669 82.5469 26.9719 82.2095ZM74.0116 67.0884C74.9437 74.6688 73.7935 80.5625 71.1163 82.1301C70.5213 82.4873 69.7479 82.6461 68.8357 82.6461C64.7306 82.6461 58.6424 79.3718 52.1774 73.3988C54.9538 70.4817 57.7302 67.1678 60.3677 63.4966C64.8496 63.0204 69.0935 62.2861 72.9804 61.3138C73.4365 63.318 73.7935 65.2429 74.0116 67.0884ZM81.6466 53.8524C79.9412 54.5866 78.077 55.2415 76.1534 55.8567C75.023 51.9672 73.5357 47.919 71.6914 43.7716C73.5158 39.6441 74.9834 35.6158 76.0939 31.7462C78.0572 32.3613 79.9213 33.036 81.6665 33.7703C88.6867 36.7667 93.2281 40.6958 93.2281 43.8113C93.2082 46.9268 88.6669 50.8758 81.6466 53.8524Z" fill="#61DAFB"/>
<path d="M48.9648 52.8799C53.97 52.8799 58.0276 48.8197 58.0276 43.8111C58.0276 38.8026 53.97 34.7424 48.9648 34.7424C43.9595 34.7424 39.9019 38.8026 39.9019 43.8111C39.9019 48.8197 43.9595 52.8799 48.9648 52.8799Z" fill="#61DAFB"/>
</g>
<defs>
<clipPath id="clip0_376_683">
<rect width="97.9494" height="87.9318" fill="white"/>
</clipPath>
</defs>
</svg>
