<svg width="134" height="102" viewBox="0 0 134 102" fill="none" xmlns="http://www.w3.org/2000/svg">
<g id="cloud-acceleration-svgrepo-com 1">
<path id="Vector" d="M84.6006 78.0803C84.9016 78.0279 85.2025 77.9756 85.4904 77.9102C85.268 77.6484 85.0586 77.3867 84.8492 77.125C84.7576 77.426 84.666 77.7531 84.6006 78.0803Z" fill="#1DD58B"/>
<path id="Vector_2" d="M108.26 77.125C108.483 77.884 108.666 78.7477 108.784 79.5459L109.137 82.2416L111.819 81.7836C112.107 81.7312 118.873 80.4881 121.137 71.485C122.982 64.1699 117.538 58.6084 115.143 56.5801C115.026 54.591 114.79 52.7328 114.463 50.9793C115.405 47.6424 115.889 44.1615 115.889 40.6021C115.889 30.4344 111.924 20.8686 104.74 13.6844C97.5427 6.48711 87.99 2.53516 77.8222 2.53516C62.2368 2.53516 48.3134 11.9963 42.5294 26.2992C41.2993 26.1291 40.0562 26.0375 38.8261 26.0375C24.3138 26.0375 12.5103 37.841 12.5103 52.3533C12.5103 66.8656 24.3138 78.6691 38.8261 78.6691H75.8593C78.4241 81.234 81.1329 81.7443 81.3161 81.7705L83.9857 82.2154L84.339 79.5328C84.4044 79.0486 84.496 78.5514 84.6138 78.0672C84.6923 77.74 84.7708 77.4129 84.8624 77.1119C85.0718 77.3736 85.2943 77.6354 85.5036 77.8971C86.8777 79.5721 88.304 81.1947 89.1153 81.7967L89.8089 82.307H103.327L104.02 81.7967C104.936 81.1162 106.703 79.0355 108.26 77.125ZM71.9728 71.485C72.1429 72.1785 72.3522 72.8328 72.5747 73.4479H38.7999C27.1665 73.4479 17.7185 63.9867 17.7185 52.3664C17.7185 40.733 27.1796 31.285 38.7999 31.285C45.4868 31.285 51.8335 34.5041 55.7985 39.8955C56.6491 41.0602 58.298 41.3088 59.4626 40.4582C60.6273 39.6076 60.8759 37.9588 60.0253 36.7941C57.6306 33.5357 54.4769 30.84 50.8913 28.9818C49.8444 28.4453 48.7714 27.9742 47.6591 27.5816C52.8149 15.6211 64.6185 7.76953 77.8091 7.76953C95.7237 7.76953 110.341 22.2033 110.642 40.0525C109.242 37.4615 107.684 35.3809 106.245 33.7844C101.992 29.0342 97.7651 27.1891 97.595 27.1105L96.5612 26.6656L95.5275 27.1105C95.3443 27.1891 91.1175 29.0342 86.8777 33.7844C83.1482 37.9457 78.6466 45.2477 77.9792 56.5932C75.5714 58.6084 70.1276 64.1699 71.9728 71.485ZM101.416 77.0857H91.6802C91.6409 77.0334 91.5886 76.9941 91.5493 76.9418C91.5362 76.9287 91.5232 76.9156 91.5232 76.9025C91.4708 76.8502 91.4316 76.7979 91.3792 76.7455C90.2276 75.4631 88.304 73.0945 86.7206 71.027L85.4644 69.3912L83.58 70.2287C83.4884 70.268 83.3968 70.3072 83.3183 70.3596L83.2398 70.3988L83.0435 70.5166C83.0173 70.5297 82.9911 70.5428 82.965 70.5689L82.7294 70.726C82.7032 70.7521 82.6771 70.7652 82.6509 70.7914L82.4939 70.9092C82.4546 70.9353 82.4284 70.9746 82.3892 71.0008C82.3499 71.04 82.3107 71.0793 82.2583 71.1186C82.1929 71.184 82.1275 71.2363 82.0751 71.3018L81.9704 71.4064C81.9312 71.4588 81.8788 71.498 81.8396 71.5504C81.8134 71.5766 81.7872 71.6027 81.7741 71.6289C81.7218 71.6813 81.6825 71.7467 81.6302 71.799L81.6171 71.8121L81.303 72.2439L81.29 72.257L81.1329 72.4926L81.1198 72.5057C80.9628 72.7543 80.8189 73.0291 80.688 73.317C80.6226 73.4609 80.5571 73.6049 80.4786 73.7619C80.4786 73.775 80.4655 73.775 80.4655 73.7881C80.4263 73.8666 80.4001 73.9451 80.3608 74.0236C80.3216 74.1152 80.2823 74.2068 80.2562 74.2984C80.23 74.3508 80.2169 74.4031 80.1907 74.4686C80.1515 74.5863 80.0991 74.7041 80.0599 74.8219C80.0468 74.8481 80.0337 74.8873 80.0337 74.9135C79.9814 75.0574 79.9421 75.2014 79.8898 75.3584C79.8243 75.3061 79.7589 75.2406 79.6935 75.1752L79.5234 75.0051L79.4972 74.9789C78.9737 74.4424 78.4241 73.7227 77.953 72.7805C77.9007 72.6627 77.8353 72.5449 77.7829 72.4271C77.7829 72.4141 77.7698 72.4141 77.7698 72.401L77.6128 72.0477C77.6128 72.0346 77.5997 72.0215 77.5997 72.0084C77.5474 71.8906 77.5081 71.7729 77.4689 71.6551C77.4558 71.6289 77.4558 71.6158 77.4427 71.5897L77.3249 71.2363C77.3118 71.2102 77.2987 71.184 77.2987 71.1447C77.2595 71.027 77.2202 70.9092 77.1941 70.7914C77.181 70.7521 77.1679 70.726 77.1679 70.6867C77.1286 70.5297 77.0763 70.3727 77.037 70.2025C75.6368 64.6279 81.9573 60.074 82.0097 60.0348L83.0827 59.2889L83.122 57.9803C83.3968 49.6707 85.8962 42.7744 90.5679 37.4615C92.9103 34.8051 95.2396 33.2217 96.5351 32.4627C97.8306 33.2217 100.16 34.8051 102.502 37.4615C102.685 37.6709 102.856 37.8803 103.026 38.0896C103.078 38.1551 103.117 38.2074 103.17 38.2729C103.301 38.443 103.431 38.6 103.562 38.7701L103.68 38.9272C103.85 39.1365 104.007 39.359 104.164 39.5814C104.19 39.6207 104.217 39.66 104.256 39.6992C104.387 39.8824 104.517 40.0656 104.648 40.2619C104.688 40.3273 104.727 40.3928 104.779 40.4451C104.91 40.6414 105.041 40.8508 105.172 41.0602C105.185 41.0863 105.211 41.1125 105.224 41.1387L105.656 41.8453C105.682 41.8977 105.721 41.95 105.748 42.0023C105.865 42.1986 105.97 42.3949 106.075 42.5912C106.101 42.6436 106.14 42.709 106.166 42.7613C106.297 43.01 106.428 43.2586 106.559 43.5203C106.677 43.7689 106.808 44.0176 106.912 44.2793C106.938 44.3316 106.965 44.3971 106.991 44.4494C107.095 44.6719 107.187 44.8943 107.292 45.1299C107.305 45.1691 107.318 45.2084 107.344 45.2346C107.462 45.4963 107.567 45.7711 107.671 46.0459C107.684 46.0852 107.697 46.1113 107.71 46.1506C107.802 46.3861 107.894 46.6348 107.972 46.8703C107.985 46.9227 108.011 46.975 108.025 47.0273C108.221 47.577 108.391 48.1527 108.561 48.7154C108.574 48.7678 108.587 48.807 108.6 48.8594C108.666 49.108 108.744 49.3697 108.81 49.6184C108.823 49.6576 108.836 49.71 108.849 49.7492C108.993 50.3119 109.124 50.8877 109.228 51.4635C109.242 51.5158 109.255 51.5813 109.268 51.6336L109.385 52.301L109.425 52.4973C109.464 52.7328 109.503 52.9553 109.529 53.1908C109.542 53.2432 109.542 53.2824 109.556 53.3348L109.673 54.1984C109.713 54.4732 109.739 54.7611 109.765 55.0359C109.778 55.1145 109.778 55.193 109.791 55.2846C109.804 55.4939 109.83 55.6902 109.843 55.8996C109.857 55.9912 109.857 56.0959 109.87 56.1875C109.883 56.3969 109.896 56.5932 109.909 56.8025C109.909 56.8941 109.922 56.9727 109.922 57.0643C109.935 57.3521 109.948 57.6531 109.961 57.941L110 59.2496L110.72 59.7469L111.074 59.9955C111.139 60.0348 117.459 64.5887 116.059 70.1764C115.392 72.8066 114.24 74.377 113.193 75.3061C112.356 72.5842 111.152 70.9092 109.542 70.1895L107.658 69.352L106.402 70.9877C104.661 73.2908 102.502 75.9342 101.416 77.0857Z" fill="#1DD58B"/>
<path id="Vector_3" d="M80.2167 74.4554C80.1774 74.5732 80.1251 74.691 80.0858 74.8087C80.1382 74.691 80.1774 74.5732 80.2167 74.4554ZM80.3868 74.0236C80.3476 74.1152 80.3083 74.2068 80.2821 74.2984C80.3214 74.1937 80.3476 74.1021 80.3868 74.0236ZM91.5099 76.9025C91.4575 76.8501 91.4183 76.7978 91.3659 76.7455C91.4183 76.7978 91.4706 76.8501 91.5099 76.9025ZM82.6376 70.7783L82.4806 70.896C82.546 70.8568 82.5983 70.8175 82.6376 70.7783ZM82.389 70.9876C82.3497 71.0269 82.3104 71.0662 82.2581 71.1054C82.2974 71.0662 82.3497 71.0269 82.389 70.9876ZM83.5667 70.2287C83.4751 70.2679 83.3835 70.3072 83.305 70.3595C83.3966 70.3072 83.4882 70.2679 83.5667 70.2287ZM91.68 77.0857C91.6407 77.0333 91.5884 76.9941 91.5491 76.9417C91.5884 76.981 91.6407 77.0333 91.68 77.0857ZM80.4915 73.7619C80.4915 73.7749 80.4784 73.775 80.4784 73.788C80.4915 73.775 80.4915 73.7749 80.4915 73.7619ZM81.3159 72.2439L81.3028 72.257C81.3028 72.257 81.3028 72.2439 81.3159 72.2439ZM81.1458 72.4925L81.1327 72.5056C81.1458 72.5056 81.1458 72.5056 81.1458 72.4925ZM81.8394 71.5373C81.8132 71.5634 81.787 71.5896 81.7739 71.6158C81.8001 71.6027 81.8132 71.5634 81.8394 71.5373ZM107.004 44.4494C107.108 44.6718 107.2 44.8943 107.305 45.1298C107.213 44.9074 107.108 44.6718 107.004 44.4494ZM106.572 43.5203C106.69 43.7689 106.82 44.0175 106.925 44.2792C106.807 44.0306 106.69 43.7689 106.572 43.5203ZM108.613 48.8724C108.679 49.121 108.757 49.3828 108.823 49.6314C108.744 49.3828 108.679 49.1341 108.613 48.8724ZM109.425 52.5103C109.464 52.7459 109.503 52.9683 109.529 53.2039C109.503 52.9814 109.464 52.7459 109.425 52.5103ZM108.037 47.0404C108.234 47.59 108.404 48.1658 108.574 48.7285C108.404 48.1527 108.234 47.59 108.037 47.0404ZM107.357 45.2345C107.475 45.4962 107.579 45.771 107.684 46.0458C107.566 45.7841 107.462 45.5093 107.357 45.2345ZM77.979 72.7673C78.4501 73.6964 78.9866 74.4162 79.5231 74.9658C79.1306 74.5601 78.7249 74.0628 78.3585 73.4478C78.2276 73.2384 78.1099 73.016 77.979 72.7673Z" fill="#1DD58B"/>
<path id="Vector_4" d="M87.4662 71.9952C87.2045 71.6681 86.9559 71.3409 86.7072 71.0269C88.2906 73.0814 90.2143 75.463 91.3658 76.7454C91.248 76.6276 91.1303 76.4837 91.0125 76.3397C90.0441 75.2274 88.7094 73.5917 87.4662 71.9952ZM109.228 51.4765C109.11 50.9007 108.979 50.3249 108.849 49.7622C108.927 50.0632 108.993 50.3642 109.058 50.6651C109.123 50.9399 109.176 51.2147 109.228 51.4765ZM109.673 54.2245C109.712 54.4993 109.738 54.7872 109.765 55.062C109.738 54.7872 109.699 54.4993 109.673 54.2245ZM109.869 56.2136C109.882 56.423 109.896 56.6192 109.909 56.8286C109.896 56.6323 109.882 56.423 109.869 56.2136ZM109.922 57.1034C109.935 57.3913 109.948 57.6923 109.961 57.9802C109.948 57.6792 109.935 57.3913 109.922 57.1034ZM77.4686 71.5896L77.3508 71.2362C77.39 71.3671 77.4293 71.4849 77.4686 71.5896ZM77.1807 70.6997C77.1414 70.5427 77.0891 70.3856 77.0498 70.2155C77.0891 70.3726 77.1283 70.5427 77.1807 70.6997ZM77.9789 72.7673C77.9266 72.6495 77.8611 72.5317 77.8088 72.414C77.8742 72.5448 77.9266 72.6495 77.9789 72.7673ZM103.196 38.2597C103.326 38.4298 103.457 38.5868 103.588 38.7569C103.457 38.5999 103.326 38.4298 103.196 38.2597ZM105.76 42.0153C105.878 42.2116 105.983 42.4079 106.088 42.6042C105.983 42.3948 105.878 42.1985 105.76 42.0153ZM103.706 38.914C103.876 39.1233 104.033 39.3458 104.19 39.5683C104.033 39.3589 103.876 39.1364 103.706 38.914Z" fill="#1DD58B"/>
<path id="Vector_5" d="M96.2471 43.1277C92.1643 43.1277 88.8535 46.4515 88.8535 50.5212C88.8535 54.6041 92.1773 57.9148 96.2471 57.9148C100.317 57.9148 103.641 54.591 103.641 50.5212C103.641 46.4515 100.33 43.1277 96.2471 43.1277ZM96.2471 55.3107C93.6168 55.3107 91.4707 53.1646 91.4707 50.5343C91.4707 47.904 93.6168 45.758 96.2471 45.758C98.8773 45.758 101.023 47.904 101.023 50.5343C101.023 53.1646 98.8773 55.3107 96.2471 55.3107ZM92.7793 84.8326C92.0596 84.8326 91.4707 85.4214 91.4707 86.1412V99.1486C91.4707 99.8683 92.0596 100.457 92.7793 100.457C93.499 100.457 94.0879 99.8683 94.0879 99.1486V86.1412C94.0879 85.4214 93.499 84.8326 92.7793 84.8326Z" fill="#FCF7F5"/>
<path id="Vector_6" d="M100.84 83.5241C99.4007 83.5241 98.223 84.7019 98.223 86.1413V89.9101C98.223 91.3495 99.4007 92.5273 100.84 92.5273C102.28 92.5273 103.457 91.3495 103.457 89.9101V86.1413C103.457 84.6888 102.28 83.5241 100.84 83.5241ZM88.7618 18.3823C89.0366 17.7149 88.7226 16.9429 88.0552 16.6681C77.822 12.4413 70.3107 14.6267 65.8091 17.2046C60.928 20.005 58.5071 23.7999 58.4025 23.9569C58.023 24.572 58.2062 25.3702 58.8081 25.7628C59.0306 25.8937 59.2661 25.9591 59.5017 25.9591C59.9335 25.9591 60.3653 25.7366 60.614 25.344C60.6402 25.3048 62.7862 21.9417 67.1046 19.4685C72.9017 16.1446 79.6148 16.0138 87.0476 19.0759C87.715 19.3769 88.487 19.0497 88.7618 18.3823Z" fill="#1DD58B"/>
</g>
</svg>
