<svg width="136" height="107" viewBox="0 0 136 107" fill="none" xmlns="http://www.w3.org/2000/svg">
<g id="safe-and-stable-svgrepo-com 1">
<path id="Vector" d="M82.1841 52.5028L88.0942 39.781H79.6872L73.7771 52.5028H82.1841ZM56.0731 39.781L50.163 52.5028H58.57L64.4802 39.781H56.0731ZM76.2872 39.781H67.8802L61.97 52.5028H70.3771L76.2872 39.781ZM39.7505 39.781V52.5028H46.763L52.6731 39.781H39.7505ZM98.1349 52.5028V39.781H91.4942L85.5841 52.5028H98.1349Z" fill="#333333"/>
<path id="Vector_2" d="M68.9429 97.3888C58.2648 92.7482 50.5351 85.2405 45.4085 77.7194C42.6327 76.7859 39.9632 75.7858 37.4132 74.759C38.489 76.7859 39.6976 78.8129 41.039 80.7598C45.7804 87.6808 54.2804 97.1088 67.8406 102.696C68.1992 102.843 68.571 102.923 68.9429 102.923C69.3148 102.923 69.6867 102.856 70.0452 102.71C79.9132 98.629 87.0984 92.5348 92.1054 86.8407C89.8874 86.734 87.6031 86.5606 85.2788 86.3339C80.8827 90.6545 75.464 94.5618 68.9429 97.3888ZM118.376 59.5035C117.393 58.6234 116.264 57.7299 114.989 56.8498C112.399 55.0229 109.251 53.196 105.652 51.4357V23.8052C105.652 22.1783 104.351 20.8581 102.757 20.8581C94.1906 20.8181 86.514 18.5111 79.9265 14.0038C74.8132 10.51 72.064 6.81617 71.3335 5.76269C70.789 4.97592 69.8992 4.49585 68.9429 4.49585C67.9999 4.49585 67.0968 4.96258 66.5523 5.74936C65.8218 6.80284 63.0593 10.4967 57.946 13.9905C51.3452 18.4978 43.6554 20.8048 35.1023 20.8448C33.5085 20.8581 32.207 22.1783 32.207 23.7919V36.1403C30.5601 36.247 29.0062 36.3936 27.5452 36.5937C24.2648 37.0337 21.4757 37.7005 19.2046 38.5806C15.3531 40.0875 13.1085 42.1944 12.5242 44.8481C11.9663 47.3818 13.0023 50.1022 15.5788 52.956L15.5921 52.9693C15.6452 53.0226 15.6851 53.076 15.7382 53.1293C18.1421 55.7163 21.7812 58.3567 26.5624 60.9837C26.8812 61.1571 27.2132 61.3438 27.5452 61.5171C29.3249 62.4639 31.2374 63.3974 33.2429 64.2909C33.8273 66.5045 34.6507 68.8115 35.6734 71.1452C38.0374 72.172 40.5343 73.1588 43.1507 74.1056C41.7429 71.6519 40.6007 69.2382 39.7242 66.9712C47.0687 69.785 55.3827 72.2653 64.1351 74.2122C73.9632 76.3992 83.5788 77.7327 92.1718 78.1461C90.8304 80.0797 89.3296 82 87.6429 83.8669C89.914 84.0536 92.132 84.187 94.2702 84.2536C95.2265 83.0401 96.0765 81.8666 96.8335 80.7598C97.3913 79.9464 97.9226 79.1196 98.4406 78.2795C100.287 78.2662 102.053 78.2128 103.766 78.0928C108.216 77.7994 111.987 77.1727 115.002 76.2259C115.666 76.0125 116.291 75.7991 116.875 75.5591C118.03 75.0924 119.04 74.559 119.89 73.9855C119.451 73.2388 118.894 72.5187 118.283 71.8386C117.406 72.4253 116.304 72.9454 115.002 73.3988C112.12 74.4123 108.242 75.119 103.594 75.4258C102.438 75.5058 101.243 75.5591 100.008 75.5858C103.567 69.0782 105.666 62.3706 105.666 57.1699V54.4095C109.384 56.3031 112.545 58.25 115.002 60.1569C115.587 60.6103 116.118 61.0504 116.623 61.5038C118.787 63.4374 121.244 66.2778 120.687 68.8382C120.594 69.2382 120.434 69.6116 120.209 69.985C120.886 70.7184 121.457 71.4519 121.909 72.172C122.599 71.3318 123.051 70.4117 123.276 69.4116C123.941 66.3445 122.294 63.0107 118.376 59.5035ZM27.8374 58.6234C27.7445 58.5701 27.6382 58.5167 27.5452 58.4634C23.0429 55.9697 19.6296 53.436 17.5179 51.089C17.5046 51.089 17.5046 51.1024 17.4913 51.1024C16.6546 50.2489 16.1101 49.3154 15.9109 48.9554C15.1671 47.6619 14.8749 46.475 15.114 45.4082C15.7515 42.4878 20.2937 40.3008 27.5452 39.274C28.9929 39.074 30.5468 38.914 32.207 38.8073V57.1832C32.207 58.3834 32.3265 59.6769 32.539 61.0237C30.8921 60.237 29.3117 59.4368 27.8374 58.6234ZM100.353 57.1832C100.353 61.4105 98.2945 68.3714 93.8718 75.5458C85.0531 75.2391 75.0124 73.8922 64.7195 71.5986C55.2499 69.4916 46.3117 66.7712 38.6085 63.6641C37.8781 61.1571 37.5195 58.9301 37.5195 57.1832V26.1255C46.2187 25.6855 54.0812 23.0984 60.9476 18.4045C64.6265 15.8974 67.2695 13.2437 68.9562 11.3101C70.6296 13.2437 73.2726 15.8841 76.9382 18.4045C83.7913 23.0984 91.6538 25.6855 100.353 26.1255V57.1832Z" fill="#1DD58B"/>
<path id="Vector_3" d="M32.1669 44.835C26.8411 45.1683 22.4716 45.9951 19.2044 47.2753C17.9294 47.7687 16.8271 48.3421 15.9106 48.9689C16.3091 49.6623 16.8536 50.3691 17.5177 51.1158C20.3333 49.2489 25.42 47.9821 32.1669 47.5287V44.835Z" fill="white"/>
<path id="Vector_4" d="M15.8979 48.9556C16.0972 49.3156 16.655 50.2491 17.4784 51.1025C17.4917 51.1025 17.4917 51.0892 17.505 51.0892C16.8542 50.3558 16.3097 49.649 15.8979 48.9556C15.9112 48.9556 15.9112 48.9556 15.8979 48.9556ZM121.896 72.1721C121.431 71.452 120.86 70.7186 120.196 69.9852C119.651 69.3984 119.053 68.7983 118.376 68.1983C115.348 65.4912 110.925 62.7041 105.493 60.0504C105.44 60.4105 105.201 62.0107 105.042 62.8108C109.929 65.2512 113.887 67.7715 116.61 70.1985C117.167 70.6919 117.739 71.252 118.27 71.8388C118.881 72.5055 119.439 73.2389 119.877 73.9857C120.554 75.1459 120.926 76.3727 120.674 77.5329C119.903 81.0134 113.515 83.4804 103.594 84.1338C100.699 84.3205 97.5643 84.3605 94.2706 84.2538C92.1323 84.1871 89.9143 84.0538 87.6432 83.8671C80.4448 83.267 72.662 82.0668 64.7198 80.2933C57.0565 78.5864 49.7518 76.4794 43.1643 74.0924C40.5479 73.1456 38.0511 72.1588 35.687 71.132C32.8714 69.9052 30.2417 68.625 27.8511 67.3181C19.1253 62.5308 14.3706 57.5834 15.1276 54.103C15.2206 53.7029 15.38 53.3162 15.6057 52.9561L15.5925 52.9428C15.4729 52.8228 14.7159 52.0493 13.8925 50.7692C13.2018 51.6093 12.7503 52.5294 12.5245 53.5295C11.9534 56.1166 13.0425 58.9036 15.7518 61.8107C18.1557 64.3977 21.7948 67.0381 26.5761 69.6651C29.8167 71.4387 33.469 73.1589 37.4401 74.7592C39.9768 75.786 42.6464 76.7728 45.4354 77.7196C51.2792 79.6932 57.5878 81.4534 64.1487 82.907C71.4268 84.5205 78.5854 85.6807 85.2925 86.3341C87.63 86.5608 89.9143 86.7342 92.119 86.8408C94.0714 86.9342 95.9573 86.9875 97.7901 86.9875C99.862 86.9875 101.867 86.9209 103.767 86.8008C109.199 86.4408 113.608 85.5873 116.875 84.2672C120.554 82.7736 122.706 80.7067 123.277 78.1196C123.689 76.226 123.224 74.2391 121.896 72.1721Z" fill="white"/>
<path id="Vector_5" d="M15.5917 52.9557C15.5917 52.9557 15.5786 52.9557 15.5786 52.9426C15.5786 52.9426 15.5917 52.9426 15.5917 52.9557Z" fill="white"/>
</g>
</svg>
