<svg width="28" height="28" viewBox="0 0 28 28" fill="none" xmlns="http://www.w3.org/2000/svg">
<path d="M10.6785 6.3095C12.1567 3.65883 12.8952 2.3335 14 2.3335C15.1048 2.3335 15.8433 3.65883 17.3215 6.3095L17.7042 6.9955C18.1242 7.74916 18.3342 8.126 18.6608 8.3745C18.9875 8.623 19.3958 8.71516 20.2125 8.8995L20.9545 9.0675C23.8245 9.71733 25.2583 10.0417 25.6002 11.1395C25.9408 12.2362 24.9632 13.3807 23.0067 15.6685L22.5003 16.26C21.945 16.9098 21.6662 17.2353 21.5413 17.6367C21.4165 18.0392 21.4585 18.4732 21.5425 19.34L21.6195 20.1298C21.9147 23.183 22.0628 24.709 21.1692 25.3868C20.2755 26.0658 18.9315 25.4463 16.2458 24.2097L15.5493 23.89C14.7863 23.5377 14.4048 23.3627 14 23.3627C13.5952 23.3627 13.2137 23.5377 12.4507 23.89L11.7553 24.2097C9.06851 25.4463 7.72451 26.0647 6.83201 25.388C5.93718 24.709 6.08534 23.183 6.38051 20.1298L6.45751 19.3412C6.54151 18.4732 6.58351 18.0392 6.45751 17.6378C6.33384 17.2353 6.05501 16.9098 5.49968 16.2612L4.99334 15.6685C3.03684 13.3818 2.05918 12.2373 2.39984 11.1395C2.74168 10.0417 4.17668 9.71616 7.04668 9.0675L7.78868 8.8995C8.60418 8.71516 9.01134 8.623 9.33918 8.3745C9.66584 8.126 9.87584 7.74916 10.2958 6.9955L10.6785 6.3095Z" fill="#1DD58B"/>
</svg>
